<svg xmlns="http://www.w3.org/2000/svg" width="512" height="512" viewBox="0 0 512 512">
  <defs>
    <linearGradient id="bg" x1="0%" y1="0%" x2="100%" y2="100%">
      <stop offset="0%" style="stop-color:#00c853"/>
      <stop offset="100%" style="stop-color:#0071e3"/>
    </linearGradient>
    <linearGradient id="drop" x1="0%" y1="0%" x2="100%" y2="100%">
      <stop offset="0%" style="stop-color:#ffffff"/>
      <stop offset="100%" style="stop-color:#e0f7fa"/>
    </linearGradient>
  </defs>
  <rect width="512" height="512" rx="108" fill="url(#bg)"/>
  <path d="M256 100 C256 100 370 200 370 300 C370 363 319 412 256 412 C193 412 142 363 142 300 C142 200 256 100 256 100Z" fill="url(#drop)" opacity="0.95"/>
  <g stroke="#0071e3" stroke-width="8" stroke-linecap="round" fill="none" opacity="0.6">
    <line x1="220" y1="240" x2="220" y2="360"/>
    <line x1="256" y1="220" x2="256" y2="360"/>
    <line x1="292" y1="240" x2="292" y2="360"/>
    <path d="M220 240 C220 210 256 190 256 220"/>
    <path d="M292 240 C292 210 256 190 256 220"/>
  </g>
  <path d="M310 140 C340 120 370 140 350 170 C330 200 300 180 310 140Z" fill="#ffffff" opacity="0.4"/>
</svg>
